<svg width="28" height="44" viewBox="0 0 28 44" fill="none" xmlns="http://www.w3.org/2000/svg">
<path d="M3 44C2.2 44 1.5 43.7 0.9 43.1C0.3 42.5 0 41.8 0 41V3C0 2.2 0.3 1.5 0.9 0.9C1.5 0.3 2.2 0 3 0H25C25.8 0 26.5 0.3 27.1 0.9C27.7 1.5 28 2.2 28 3V41C28 41.8 27.7 42.5 27.1 43.1C26.5 43.7 25.8 44 25 44H3ZM3 36.5V41H25V36.5H3ZM14.0087 40.25C14.4362 40.25 14.7917 40.1054 15.075 39.8163C15.3583 39.5271 15.5 39.1687 15.5 38.7413C15.5 38.3138 15.3554 37.9583 15.0663 37.675C14.7771 37.3917 14.4187 37.25 13.9913 37.25C13.5638 37.25 13.2083 37.3946 12.925 37.6837C12.6417 37.9729 12.5 38.3313 12.5 38.7587C12.5 39.1862 12.6446 39.5417 12.9337 39.825C13.2229 40.1083 13.5813 40.25 14.0087 40.25ZM3 33.5H25V7.5H3V33.5ZM3 4.5H25V3H3V4.5Z" fill="#676767"/>
</svg>
